<svg xmlns="http://www.w3.org/2000/svg"  viewBox="0 0 24 24" width="24px" height="24px"><path d="M 8 4 C 6.3545455 4 5 5.3545455 5 7 L 5 17 C 5 18.645455 6.3545455 20 8 20 L 17 20 C 18.645455 20 20 18.645455 20 17 L 20 14.230469 A 1.0001 1.0001 0 0 0 18.328125 13.488281 C 17.974305 13.808722 17.518918 14 17 14 C 15.878153 14 15 13.121847 15 12 C 15 10.878153 15.878153 10 17 10 C 17.518918 10 17.974305 10.191278 18.328125 10.511719 A 1.0001 1.0001 0 0 0 20 9.7695312 L 20 7 C 20 5.3545455 18.645455 4 17 4 L 8 4 z M 8 6 L 17 6 C 17.554545 6 18 6.4454545 18 7 L 18 8.1894531 C 17.673461 8.1029467 17.351336 8 17 8 C 14.801847 8 13 9.8018474 13 12 C 13 14.198153 14.801847 16 17 16 C 17.351336 16 17.673461 15.897053 18 15.810547 L 18 17 C 18 17.554545 17.554545 18 17 18 L 8 18 C 7.4454545 18 7 17.554545 7 17 L 7 7 C 7 6.4454545 7.4454545 6 8 6 z"/></svg>